<svg xmlns="http://www.w3.org/2000/svg"
    xmlns:xlink="http://www.w3.org/1999/xlink" aria-hidden="true" style="position: absolute; width: 0; height: 0; overflow: hidden;" version="1.1">
    <defs>
        <symbol id="fluent--people-settings-20-filled" viewBox="0 0 20 20">
            <path fill="currentColor" d="M6.75 9a3.25 3.25 0 1 0 0-6.5a3.25 3.25 0 0 0 0 6.5M17 6.5a2.5 2.5 0 1 1-5 0a2.5 2.5 0 0 1 5 0m-8 8c0-1.704.775-3.228 1.993-4.237A2 2 0 0 0 10 10H3.5a2 2 0 0 0-2 2s0 4 5.25 4c.953 0 1.733-.132 2.371-.347A5.5 5.5 0 0 1 9 14.5m3.065-3.058a2 2 0 0 1-1.43 2.478l-.462.118a4.7 4.7 0 0 0 .01 1.016l.35.083a2 2 0 0 1 1.456 2.519l-.127.422q.388.307.835.518l.325-.344a2 2 0 0 1 2.91.002l.337.358q.44-.203.822-.498l-.156-.556a2 2 0 0 1 1.43-2.479l.46-.117a4.7 4.7 0 0 0-.01-1.017l-.348-.082a2 2 0 0 1-1.456-2.52l.126-.421a4.3 4.3 0 0 0-.835-.519l-.325.344a2 2 0 0 1-2.91-.001l-.337-.358a4.3 4.3 0 0 0-.821.497zm2.434 4.058a1 1 0 1 1 0-2a1 1 0 0 1 0 2" />
        </symbol>
        <symbol id="icon-park-solid--people-plus-one" viewBox="0 0 48 48">
            <g fill="none">
                <path fill="currentColor" stroke="currentColor" stroke-linecap="round" stroke-linejoin="round" stroke-width="4" d="M19 20a7 7 0 1 0 0-14a7 7 0 0 0 0 14M4 40.8V42h30v-1.2c0-4.48 0-6.72-.872-8.432a8 8 0 0 0-3.496-3.496C27.92 28 25.68 28 21.2 28h-4.4c-4.48 0-6.72 0-8.432.872a8 8 0 0 0-3.496 3.496C4 34.08 4 36.32 4 40.8" />
                <path fill="currentColor" fill-rule="evenodd" d="M38 13v12zm-6 6h12z" clip-rule="evenodd" />
                <path stroke="currentColor" stroke-linecap="round" stroke-linejoin="round" stroke-width="4" d="M38 13v12m-6-6h12" />
            </g>
        </symbol>
        <symbol id="fluent--people-team-48-filled" viewBox="0 0 48 48">
            <path fill="currentColor" d="M18 11a6 6 0 1 1 12 0a6 6 0 0 1-12 0m19-4a5 5 0 1 0 0 10a5 5 0 0 0 0-10M11 7a5 5 0 1 0 0 10a5 5 0 0 0 0-10m8.25 12A4.25 4.25 0 0 0 15 23.25V34a9 9 0 1 0 18 0V23.25A4.25 4.25 0 0 0 28.75 19zM13 23.25c0-1.6.602-3.061 1.592-4.167A4.3 4.3 0 0 0 13.75 19h-5.5A4.25 4.25 0 0 0 4 23.25V33a7 7 0 0 0 10.293 6.179A10.95 10.95 0 0 1 13 34zM35 34c0 1.872-.468 3.635-1.293 5.179A7 7 0 0 0 44 33v-9.75A4.25 4.25 0 0 0 39.75 19h-5.5q-.433.001-.842.083A6.23 6.23 0 0 1 35 23.25z" />
        </symbol>
    </defs>
</svg>
